<svg height="50" viewBox="0 -61 512 512" width="50" xmlns="http://www.w3.org/2000/svg"><path d="m91 330h330v60h-330zm0 0"/><path d="m256 233.792969-8.789062-8.789063 8.789062-8.789062 8.789062 8.789062zm0 0"/><path d="m362.847656 194.882812-17.976562-.191406c-40.28125-6.367187-67.105469-57.992187-79.707032-105.617187-3.007812.464843-6.027343.925781-9.164062.925781-3.140625 0-6.15625-.460938-9.167969-.925781-12.621093 47.636719-39.636719 99.277343-82.046875 105.808593l-17.285156-.105468c-24.472656-2.914063-54.984375-18.378906-76.25-45.589844-4.28125 3.902344-9.101562 7.164062-14.371094 9.707031l44.394532 141.105469h309.453124l44.394532-141.101562c-5.273438-2.542969-10.097656-5.808594-14.378906-9.714844-21.285157 27.199218-51.980469 42.671875-77.894532 45.699218zm-196.847656 81.328126-21.210938-21.210938 21.210938-21.210938 21.210938 21.210938zm90 0-51.210938-51.210938 51.210938-51.210938 51.210938 51.210938zm90 0-21.210938-21.210938 21.210938-21.210938 21.210938 21.210938zm0 0"/><path d="m347.859375 164.722656 13.199219.144532c11.878906-1.730469 27.203125-7.894532 41.085937-18.816407-27.460937-26.492187-63.761719-44.558593-104.300781-51.984375 12.34375 38.410156 31.804688 66.3125 50.015625 70.65625zm0 0"/><path d="m149.550781 164.796875 12.566407.070313c19.59375-4.503907 39.476562-31.953126 52.019531-70.800782-40.542969 7.433594-76.851563 25.507813-104.304688 52.003906 13.132813 10.445313 27.753907 16.960938 39.71875 18.726563zm0 0"/><path d="m31 135c16.570312 0 30-13.433594 30-30 0-16.570312-13.429688-30-30-30s-31 13.429688-31 30c0 16.566406 14.429688 30 31 30zm0 0"/><path d="m286 30c0 16.570312-13.429688 30-30 30s-30-13.429688-30-30 13.429688-30 30-30 30 13.429688 30 30zm0 0"/><path d="m481 75c-16.570312 0-30 13.429688-30 30 0 16.566406 13.429688 30 30 30s31-13.433594 31-30c0-16.570312-14.429688-30-31-30zm0 0"/></svg>